<?xml version="1.0" standalone="no"?>
<!DOCTYPE svg PUBLIC "-//W3C//DTD SVG 20010904//EN"
 "http://www.w3.org/TR/2001/REC-SVG-20010904/DTD/svg10.dtd">
<svg version="1.0" xmlns="http://www.w3.org/2000/svg"
 width="1572.000000pt" height="644.000000pt" viewBox="0 0 1572.000000 644.000000"
 preserveAspectRatio="xMidYMid meet">

<g transform="translate(0.000000,644.000000) scale(0.100000,-0.100000)"
fill="#fff" stroke="none">
<path d="M715 6423 c-62 -8 -232 -66 -295 -100 -183 -99 -316 -264 -382 -473
-20 -64 -23 -96 -23 -220 0 -175 11 -223 94 -400 33 -69 98 -210 146 -315 109
-238 541 -1179 730 -1590 79 -170 308 -670 510 -1110 515 -1122 525 -1143 609
-1310 138 -275 241 -429 383 -572 202 -203 423 -302 719 -319 417 -24 732 136
996 507 108 151 255 407 322 559 41 93 710 1543 1086 2355 630 1360 637 1373
710 1421 46 31 130 45 193 33 85 -15 125 -46 168 -129 l24 -45 6 -1910 c5
-1752 7 -1917 22 -1994 108 -527 477 -818 967 -762 399 47 650 287 757 726 15
64 17 211 23 1710 5 1637 5 1640 27 1715 49 171 112 292 207 397 260 285 717
380 1086 224 207 -87 380 -270 459 -487 69 -189 64 -55 71 -1864 6 -1447 8
-1643 22 -1706 89 -392 300 -638 623 -725 114 -31 333 -32 457 -1 238 59 424
204 534 418 58 110 76 161 107 296 21 92 21 105 27 1743 l5 1650 23 79 c93
320 327 554 634 635 252 66 500 43 709 -65 215 -111 361 -297 436 -554 l27
-95 6 -1635 c7 -1806 3 -1691 71 -1895 101 -302 303 -503 580 -576 106 -28
323 -31 435 -6 345 76 566 312 660 707 17 71 19 184 22 1895 2 1304 0 1853 -8
1935 -93 941 -775 1658 -1730 1819 -793 134 -1622 -117 -2248 -679 l-104 -92
-111 118 c-211 222 -384 354 -612 465 -268 130 -532 192 -942 220 -496 33
-959 -92 -1477 -401 -187 -111 -424 -282 -532 -382 l-31 -29 -51 63 c-161 203
-431 407 -724 548 -334 160 -661 226 -991 200 -749 -58 -1298 -417 -1675
-1095 -37 -67 -318 -709 -701 -1604 -352 -822 -644 -1498 -648 -1502 -5 -5
-81 175 -170 399 -241 605 -950 2392 -1220 3072 -106 268 -150 354 -222 444
-99 124 -268 229 -438 272 -77 19 -118 24 -212 23 -64 -1 -129 -4 -146 -6z"/>
</g>
</svg>
